<?xml version="1.0" encoding="UTF-8"?>
<svg width="112px" height="29px" viewBox="0 0 112 29" version="1.1" xmlns="http://www.w3.org/2000/svg" xmlns:xlink="http://www.w3.org/1999/xlink">
    <!-- Generator: Sketch 59.1 (86144) - https://sketch.com -->
    <title>Download_on_the_App_Store_Badge_US-UK_RGB_blk_092917@3x</title>
    <desc>Created with Sketch.</desc>
    <g id="landingPage" stroke="none" stroke-width="1" fill="none" fill-rule="evenodd">
        <g id="landing" transform="translate(-430.000000, -3188.000000)" fill="#FFFFFF" fill-rule="nonzero">
            <g id="Group-4@3x" transform="translate(390.000000, 3180.000000)">
                <g id="Download_on_the_App_Store_Badge_US-UK_RGB_blk_092917-Clipped">
                    <g id="Download_on_the_App_Store_Badge_US-UK_RGB_blk_092917" transform="translate(40.000000, 8.000000)">
                        <g id="Group">
                            <g id="_Group_">
                                <g>
                                    <g id="_Group_2">
                                        <g id="_Group_3">
                                            <path d="M16.6424103,13.7199892 C16.6668642,11.8277717 17.6619197,10.0799384 19.2789576,9.08884538 C18.2542072,7.6298027 16.5993495,6.73790278 14.8136004,6.68220231 C12.9348467,6.48560462 11.1134769,7.80297423 10.1560984,7.80297423 C9.18019238,7.80297423 7.70615772,6.70172154 6.11886574,6.73427962 C4.03040339,6.8015467 2.13058912,7.95662457 1.1145097,9.77690385 C-1.04927248,13.51168 0.564714356,19.0005435 2.63743644,22.0194546 C3.67446317,23.4977296 4.8864497,25.1490008 6.4723096,25.0904431 C8.02416881,25.026275 8.60375812,24.1039077 10.4769849,24.1039077 C12.3328252,24.1039077 12.8766014,25.0904431 14.4946383,25.0532115 C16.1598555,25.0262638 17.2090214,23.5683669 18.2096644,22.0760938 C18.9547664,21.0227689 19.5281211,19.8586155 19.9084907,18.6267558 C17.9307183,17.7928176 16.6447187,15.8608075 16.6424103,13.7199892 L16.6424103,13.7199892 Z" id="_Path_"></path>
                                            <path d="M13.5862302,4.69676192 C14.4941758,3.6101452 14.9414861,2.21348351 14.8331684,0.803378077 C13.4460294,0.948624005 12.1647016,1.60955541 11.2444898,2.65448154 C10.3358229,3.68544161 9.87549439,5.03421337 9.96489347,6.40372423 C11.3706323,6.4181537 12.7053517,5.78901705 13.5862302,4.69676192 L13.5862302,4.69676192 Z" id="_Path_2"></path>
                                        </g>
                                    </g>
                                    <g id="Group" transform="translate(26.970297, 10.038462)">
                                        <path d="M9.28867832,11.3096096 L3.99289416,11.3096096 L2.72111832,15.0533423 L0.478034752,15.0533423 L5.49411594,1.20249615 L7.82460109,1.20249615 L12.8406823,15.0533423 L10.5593465,15.0533423 L9.28867832,11.3096096 Z M4.54136931,9.58206846 L8.73915149,9.58206846 L6.66978584,3.50626731 L6.61187614,3.50626731 L4.54136931,9.58206846 Z" id="Shape"></path>
                                        <path d="M23.6737126,10.0046988 C23.6737126,13.1428112 21.9889385,15.1589915 19.4464833,15.1589915 C18.1323104,15.2275259 16.8944313,14.5413035 16.2594022,13.3922223 L16.2112933,13.3922223 L16.2112933,18.3940308 L14.1320933,18.3940308 L14.1320933,4.95496231 L16.1446792,4.95496231 L16.1446792,6.63457538 L16.1829202,6.63457538 C16.8461612,5.49269806 18.0853751,4.80677101 19.4082423,4.84930192 C21.9790594,4.84931308 23.6737126,6.87529769 23.6737126,10.0046988 Z M21.5366029,10.0046988 C21.5366029,7.96019885 20.4767859,6.61606 18.8597559,6.61606 C17.2711326,6.61606 16.2025777,7.98850731 16.2025777,10.0046988 C16.2025777,12.0394058 17.2711326,13.4020488 18.8597559,13.4020488 C20.4767971,13.4020488 21.5366029,12.0677254 21.5366029,10.0046988 Z" id="Shape"></path>
                                        <path d="M34.822494,10.0046988 C34.822494,13.1428112 33.1377199,15.1589915 30.5952647,15.1589915 C29.2810917,15.2275259 28.0432127,14.5413035 27.4081836,13.3922223 L27.3600747,13.3922223 L27.3600747,18.3940308 L25.2808747,18.3940308 L25.2808747,4.95496231 L27.2934158,4.95496231 L27.2934158,6.63457538 L27.3316568,6.63457538 C27.9949026,5.49269875 29.2341213,4.80677574 30.5569901,4.84931308 C33.1278855,4.84931308 34.822494,6.87529769 34.822494,10.0046988 Z M32.6853954,10.0046988 C32.6853954,7.96019885 31.6255673,6.61606 30.0085373,6.61606 C28.419914,6.61606 27.3513591,7.98850731 27.3513591,10.0046988 C27.3513591,12.0394058 28.419914,13.4020488 30.0085373,13.4020488 C31.6255785,13.4020488 32.6853954,12.0677254 32.6853954,10.0046988 L32.6853954,10.0046988 Z" id="Shape"></path>
                                        <path d="M42.1909219,11.194145 C42.3449823,12.5676854 43.6834169,13.4695296 45.5123947,13.4695296 C47.2649128,13.4695296 48.5257578,12.5676408 48.5257578,11.3291623 C48.5257578,10.2540765 47.7653126,9.61035462 45.9647303,9.16919769 L44.164148,8.73676308 C41.6129549,8.12243154 40.4285806,6.93297423 40.4285806,5.00283462 C40.4285806,2.61303385 42.517615,0.971544615 45.483988,0.971544615 C48.4197504,0.971544615 50.4323251,2.61303385 50.5000692,5.00283462 L48.4011781,5.00283462 C48.2755355,3.62058308 47.1294023,2.78623077 45.4544626,2.78623077 C43.7795229,2.78623077 42.6334008,3.63039846 42.6334008,4.85906154 C42.6334008,5.83829115 43.3654394,6.41449885 45.1561873,6.8556 L46.686901,7.23030231 C49.5374658,7.90236615 50.7218401,9.04391769 50.7218401,11.06988 C50.7218401,13.6611862 48.651378,15.28416 45.3583119,15.28416 C42.2772047,15.28416 40.1969194,13.69931 40.0625277,11.1940446 L42.1909219,11.194145 Z" id="Path"></path>
                                        <path d="M55.209126,2.56516154 L55.209126,4.95496231 L57.1353621,4.95496231 L57.1353621,6.59645154 L55.209126,6.59645154 L55.209126,12.1635704 C55.209126,13.0284285 55.5948141,13.4314504 56.4415645,13.4314504 C56.67024,13.4274751 56.8985456,13.4114656 57.1255277,13.3834888 L57.1255277,15.0151738 C56.7448277,15.0860895 56.3578782,15.1182069 55.9706565,15.11103 C53.9198744,15.11103 53.1200917,14.34311 53.1200917,12.3846508 L53.1200917,6.59645154 L51.6472877,6.59645154 L51.6472877,4.95496231 L53.1200693,4.95496231 L53.1200693,2.56516154 L55.209126,2.56516154 Z" id="Path"></path>
                                        <path d="M58.2509406,10.0046988 C58.2509406,6.82738077 60.1280049,4.83079769 63.0550629,4.83079769 C65.9919441,4.83079769 67.8602704,6.82733615 67.8602704,10.0046988 C67.8602704,13.1907392 66.0017784,15.1786 63.0550629,15.1786 C60.1093878,15.1786 58.2509406,13.1907281 58.2509406,10.0046988 Z M65.741733,10.0046988 C65.741733,7.82512577 64.7398257,6.53873038 63.0550517,6.53873038 C61.3702776,6.53873038 60.3694668,7.83493 60.3694668,10.0046988 C60.3694668,12.1929831 61.3702776,13.4695854 63.0550517,13.4695854 C64.7398257,13.4695854 65.741733,12.1929831 65.741733,10.0046988 L65.741733,10.0046988 Z" id="Shape"></path>
                                        <path d="M69.5744916,4.95496231 L71.5575521,4.95496231 L71.5575521,6.67377 L71.605661,6.67377 C71.8822045,5.56729553 72.8991558,4.80578135 74.0421312,4.84929077 C74.2817405,4.84845672 74.5206886,4.87439891 74.7545011,4.92663154 L74.7545011,6.86548231 C74.452009,6.77333293 74.1364578,6.73102413 73.8202932,6.74022462 C73.2090283,6.71550261 72.6174595,6.95836566 72.2009153,7.40504512 C71.7843711,7.85172459 71.5844668,8.45759429 71.6536916,9.06357077 L71.6536916,15.05332 L69.5744916,15.05332 L69.5744916,4.95496231 Z" id="Path"></path>
                                        <path d="M84.3408505,12.0873227 C84.0611475,13.9205131 82.2703884,15.1785888 79.9792295,15.1785888 C77.032514,15.1785888 75.203525,13.2103254 75.203525,10.0526158 C75.203525,6.88510192 77.0423483,4.83078654 79.8918279,4.83078654 C82.6943174,4.83078654 84.4566699,6.75002885 84.4566699,9.81189346 L84.4566699,10.5220812 L77.3023938,10.5220812 L77.3023938,10.6473388 C77.2355978,11.3991433 77.4959947,12.1433255 78.017348,12.6905895 C78.5387013,13.2378535 79.2707615,13.5354525 80.027316,13.5076869 C81.0363079,13.6019365 81.9875898,13.0243212 82.3665503,12.0873115 L84.3408505,12.0873227 Z M77.3122,9.07339731 L82.3763735,9.07339731 C82.4141059,8.39783951 82.1674426,7.73722575 81.6958114,7.25070442 C81.2241802,6.76418309 80.5703435,6.49586661 79.8918279,6.51039962 C79.207945,6.50633095 78.5507649,6.77477324 78.0663583,7.25606016 C77.5819517,7.73734708 77.3104562,8.39159941 77.3122,9.07339731 L77.3122,9.07339731 Z" id="Shape"></path>
                                    </g>
                                </g>
                            </g>
                            <g id="_Group_4" transform="translate(28.000000, 0.000000)">
                                <g id="Group">
                                    <path d="M3.14918314,0.835428571 C4.02829502,0.770724779 4.88936567,1.11376849 5.49539115,1.77013922 C6.10141664,2.42650995 6.38851855,3.32702262 6.277674,4.22381714 C6.277674,6.40238857 5.12965886,7.65467429 3.14918314,7.65467429 L0.747596571,7.65467429 L0.747596571,0.835428571 L3.14918314,0.835428571 Z M1.78026086,6.69028571 L3.03383229,6.69028571 C3.66209102,6.72880229 4.27382784,6.47492458 4.69918634,5.9991449 C5.12454485,5.52336523 5.31824014,4.87633648 5.22649029,4.23771429 C5.3115649,3.60174232 5.11508019,2.96005282 4.69077634,2.48815312 C4.26647249,2.01625342 3.65875232,1.7635272 3.03383229,1.79909714 L1.78026086,1.79909714 L1.78026086,6.69028571 Z" id="Shape"></path>
                                    <path d="M7.44418629,5.07924571 C7.35814908,4.15682863 7.78939608,3.26412793 8.55706346,2.77553985 C9.32473084,2.28695177 10.2960912,2.28695177 11.0637585,2.77553985 C11.8314259,3.26412793 12.2626729,4.15682863 12.1766357,5.07924571 C12.2643099,6.00265401 11.8334565,6.89708615 11.0651085,7.38672606 C10.2967604,7.87636596 9.32406158,7.87636596 8.55571354,7.38672606 C7.7873655,6.89708615 7.35651212,6.00265401 7.44418629,5.07924571 Z M11.1581117,5.07924571 C11.1581117,3.96373714 10.6695086,3.31139429 9.81204343,3.31139429 C8.95130229,3.31139429 8.46710057,3.96373714 8.46710057,5.07925714 C8.46710057,6.20370286 8.95133571,6.85101714 9.81204343,6.85101714 C10.6695309,6.85101714 11.1581117,6.19922286 11.1581117,5.07924571 L11.1581117,5.07924571 Z" id="Shape"></path>
                                    <polygon id="Path" points="18.4673469 7.65457143 17.4401203 7.65457143 16.4030991 3.86438857 16.3247537 3.86438857 15.2920783 7.65457143 14.2746351 7.65457143 12.8915726 2.50836571 13.8959563 2.50836571 14.7947837 6.43522286 14.8687834 6.43522286 15.9003669 2.50836571 16.85034 2.50836571 17.8819234 6.43522286 17.9602689 6.43522286 18.8547394 2.50836571 19.8449717 2.50836571"></polygon>
                                    <path d="M21.0082191,2.50836571 L21.9614571,2.50836571 L21.9614571,3.32588571 L22.0354569,3.32588571 C22.2927843,2.72397479 22.894084,2.35577997 23.5327783,2.40902857 C24.027317,2.37089345 24.51193,2.56547417 24.8497869,2.93783094 C25.1876438,3.3101877 25.3420808,3.81991287 25.2694929,4.32308571 L25.2694929,7.65451429 L24.2792606,7.65451429 L24.2792606,4.57812571 C24.2792606,3.75112 23.9288734,3.33984 23.1965314,3.33984 C22.8610934,3.32381614 22.5355596,3.45883722 22.3052751,3.70950489 C22.0749906,3.96017257 21.9629225,4.30148687 21.9984514,4.64396571 L21.9984514,7.65457143 L21.0082191,7.65457143 L21.0082191,2.50836571 Z" id="Path"></path>
                                    <polygon id="Path" points="26.8473437 0.499428571 27.837576 0.499428571 27.837576 7.65456 26.8473437 7.65456"></polygon>
                                    <path d="M29.2141089,5.07924571 C29.1281377,4.15676828 29.5594528,3.26404499 30.3271771,2.77544937 C31.0949014,2.28685376 32.0663117,2.28685376 32.834036,2.77544937 C33.6017604,3.26404499 34.0330754,4.15676828 33.9471043,5.07924571 C34.0346671,6.00268707 33.6037348,6.89709393 32.8353486,7.38671227 C32.0669624,7.87633062 31.0942507,7.87633062 30.3258645,7.38671227 C29.5574784,6.89709393 29.126546,6.00268707 29.2141089,5.07924571 L29.2141089,5.07924571 Z M32.9280343,5.07924571 C32.9280343,3.96373714 32.4394311,3.31139429 31.581966,3.31139429 C30.7212249,3.31139429 30.2370231,3.96373714 30.2370231,5.07925714 C30.2370231,6.20370286 30.7212583,6.85101714 31.581966,6.85101714 C32.4394423,6.85101714 32.9280343,6.19922286 32.9280343,5.07924571 L32.9280343,5.07924571 Z" id="Shape"></path>
                                    <path d="M34.9895743,6.19922286 C34.9895743,5.27288 35.662068,4.73884571 36.85578,4.66294857 L38.2149077,4.58259429 L38.2149077,4.1384 C38.2149077,3.59486857 37.8645206,3.28795429 37.1876811,3.28795429 C36.6348951,3.28795429 36.2518594,3.49610286 36.1419463,3.85994286 L35.1832706,3.85994286 C35.28447,2.97601143 36.0951574,2.40905143 37.233378,2.40905143 C38.4913063,2.40905143 39.2007943,3.05133714 39.2007943,4.1384 L39.2007943,7.65458286 L38.2475563,7.65458286 L38.2475563,6.93137143 L38.1692109,6.93137143 C37.8454536,7.45951581 37.2697078,7.76818655 36.6620949,7.73937143 C36.2361437,7.7848135 35.8113279,7.64332647 35.4926696,7.34988851 C35.1740114,7.05645055 34.9912525,6.6384495 34.9895743,6.19922286 L34.9895743,6.19922286 Z M38.2149077,5.75948571 L38.2149077,5.32924571 L36.989628,5.4096 C36.2986371,5.45702857 35.9852443,5.69810286 35.9852443,6.15178286 C35.9852443,6.61494857 36.3769826,6.88448 36.9156729,6.88448 C37.2345659,6.91758841 37.5529065,6.81654292 37.7978199,6.60447496 C38.0427332,6.392407 38.1932478,6.08747549 38.2149077,5.75948571 Z" id="Shape"></path>
                                    <path d="M40.5022354,5.07924571 C40.5022354,3.45313143 41.3172797,2.42299429 42.5849914,2.42299429 C43.2251227,2.39274301 43.824665,2.74454042 44.123664,3.32585143 L44.1976637,3.32585143 L44.1976637,0.499428571 L45.187896,0.499428571 L45.187896,7.65456 L44.2390149,7.65456 L44.2390149,6.84149714 L44.1606694,6.84149714 C43.8390689,7.41798512 43.2321402,7.76383597 42.5850026,7.73937143 C41.3085771,7.73942857 40.5022354,6.70926857 40.5022354,5.07924571 Z M41.5251497,5.07924571 C41.5251497,6.17076571 42.0268011,6.82757714 42.8657803,6.82757714 C43.7003803,6.82757714 44.2161943,6.16129143 44.2161943,5.08371429 C44.2161943,4.01116571 43.6949649,3.33538286 42.8657803,3.33538286 C42.0322054,3.33538286 41.5251163,3.99665143 41.5251163,5.07924571 L41.5251497,5.07924571 Z" id="Shape"></path>
                                    <path d="M49.2848571,5.07924571 C49.1988199,4.15682863 49.6300669,3.26412793 50.3977343,2.77553985 C51.1654017,2.28695177 52.136762,2.28695177 52.9044294,2.77553985 C53.6720968,3.26412793 54.1033438,4.15682863 54.0173066,5.07924571 C54.1049807,6.00265401 53.6741274,6.89708615 52.9057793,7.38672606 C52.1374313,7.87636596 51.1647324,7.87636596 50.3963844,7.38672606 C49.6280364,6.89708615 49.197183,6.00265401 49.2848571,5.07924571 L49.2848571,5.07924571 Z M52.9987714,5.07924571 C52.9987714,3.96373714 52.5101794,3.31139429 51.6527143,3.31139429 C50.7919731,3.31139429 50.3077714,3.96373714 50.3077714,5.07925714 C50.3077714,6.20370286 50.7920066,6.85101714 51.6527143,6.85101714 C52.5101906,6.85101714 52.9987714,6.19922286 52.9987714,5.07924571 Z" id="Shape"></path>
                                    <path d="M55.3459586,2.50836571 L56.2991966,2.50836571 L56.2991966,3.32588571 L56.3731963,3.32588571 C56.6305237,2.72397479 57.2318235,2.35577997 57.8705177,2.40902857 C58.3650564,2.37089345 58.8496694,2.56547417 59.1875263,2.93783094 C59.5253832,3.3101877 59.6798203,3.81991287 59.6072323,4.32308571 L59.6072323,7.65451429 L58.617,7.65451429 L58.617,4.57812571 C58.617,3.75112 58.2666129,3.33984 57.5342709,3.33984 C57.1988328,3.32381614 56.8732991,3.45883722 56.6430146,3.70950489 C56.4127301,3.96017257 56.3006619,4.30148687 56.3361909,4.64396571 L56.3361909,7.65457143 L55.3459586,7.65457143 L55.3459586,2.50836571 Z" id="Path"></path>
                                    <path d="M65.2026069,1.22712 L65.2026069,2.53180571 L66.2896929,2.53180571 L66.2896929,3.38728 L65.2026069,3.38728 L65.2026069,6.03348571 C65.2026069,6.57254857 65.4191571,6.80859429 65.9120949,6.80859429 C66.0382939,6.80818004 66.1643663,6.8003539 66.2896929,6.78515429 L66.2896929,7.63113143 C66.1118635,7.66376082 65.9316903,7.68112005 65.7510471,7.68302857 C64.6498209,7.68302857 64.2112826,7.28570286 64.2112826,6.29352 L64.2112826,3.38723429 L63.4147466,3.38723429 L63.4147466,2.53176 L64.2112826,2.53176 L64.2112826,1.22712 L65.2026069,1.22712 Z" id="Path"></path>
                                    <path d="M67.6422797,0.499428571 L68.6238094,0.499428571 L68.6238094,3.33537143 L68.7021549,3.33537143 C68.9718429,2.72819264 69.5836664,2.35952862 70.2320691,2.41349714 C70.7237996,2.38605404 71.2018524,2.58491853 71.5360166,2.9559244 C71.8701808,3.32693028 72.0256512,3.83143501 71.9600811,4.33202286 L71.9600811,7.65457143 L70.9688571,7.65457143 L70.9688571,4.58257143 C70.9688571,3.76058286 70.5955714,3.34428571 69.8959226,3.34428571 C69.5514177,3.31530705 69.2120064,3.4437611 68.9684272,3.69530686 C68.7248479,3.94685262 68.6019381,4.29584036 68.6325566,4.64897143 L68.6325566,7.65457143 L67.6423243,7.65457143 L67.6422797,0.499428571 Z" id="Path"></path>
                                    <path d="M77.7339643,6.26506286 C77.4562921,7.23578227 76.5403959,7.8629749 75.5598034,7.75389714 C74.8907461,7.77201165 74.2477447,7.48757794 73.8014029,6.97606304 C73.3550611,6.46454814 73.150502,5.77766393 73.242,5.09765714 C73.1529322,4.41576054 73.3567249,3.7277757 73.8005812,3.21193938 C74.2444376,2.69610306 74.8846822,2.40317343 75.5554466,2.40904 C76.9515686,2.40904 77.7938126,3.38732571 77.7938126,5.00332571 L77.7938126,5.35771429 L74.2507294,5.35771429 L74.2507294,5.41462857 C74.2193757,5.79650302 74.3465365,6.174226 74.6009392,6.45490366 C74.8553418,6.73558131 75.2133808,6.8931702 75.5870031,6.88891429 C76.0714632,6.94856535 76.5430519,6.70209491 76.7807263,6.26502857 L77.7339643,6.26506286 Z M74.2507071,4.60658286 L76.7850497,4.60658286 C76.8102915,4.25732621 76.6905566,3.91337722 76.4553514,3.65949611 C76.2201463,3.40561499 75.8913452,3.26541283 75.5499754,3.27344 C75.2039808,3.26898161 74.870894,3.40802427 74.6262731,3.65902729 C74.3816521,3.91003032 74.2462312,4.25171855 74.2507294,4.60658286 L74.2507071,4.60658286 Z" id="Shape"></path>
                                </g>
                            </g>
                        </g>
                    </g>
                </g>
            </g>
        </g>
    </g>
</svg>