<?xml version="1.0" encoding="UTF-8"?>
<svg width="159px" height="71px" viewBox="0 0 159 71" version="1.1" xmlns="http://www.w3.org/2000/svg" xmlns:xlink="http://www.w3.org/1999/xlink">
    <!-- Generator: Sketch 59.1 (86144) - https://sketch.com -->
    <title>google-play-badge@3x</title>
    <desc>Created with Sketch.</desc>
    <defs>
        <filter x="-43.6%" y="-193.2%" width="187.2%" height="486.4%" filterUnits="objectBoundingBox" id="filter-1">
            <feOffset dx="0" dy="21" in="SourceAlpha" result="shadowOffsetOuter1"></feOffset>
            <feGaussianBlur stdDeviation="11.5" in="shadowOffsetOuter1" result="shadowBlurOuter1"></feGaussianBlur>
            <feColorMatrix values="0 0 0 0 0   0 0 0 0 0   0 0 0 0 0  0 0 0 0.0865930944 0" type="matrix" in="shadowBlurOuter1" result="shadowMatrixOuter1"></feColorMatrix>
            <feMerge>
                <feMergeNode in="shadowMatrixOuter1"></feMergeNode>
                <feMergeNode in="SourceGraphic"></feMergeNode>
            </feMerge>
        </filter>
        <path d="M5.013,9.274 L0.888,5.146 L0.888,4.854 L5.015,0.727 L9.997,3.557 C11.393,4.351 11.393,5.649 9.997,6.442 L5.108,9.22 L5.013,9.274" id="path-2"></path>
        <linearGradient x1="80.7483261%" y1="49.99766%" x2="-157.307011%" y2="49.99766%" id="linearGradient-4">
            <stop stop-color="#EC942D" offset="0%"></stop>
            <stop stop-color="#FBDE1E" offset="100%"></stop>
        </linearGradient>
        <path d="M17.108,4.22 L12.888,0 L0.435,12.453 C0.896,12.94 1.656,13 2.512,12.514 L17.108,4.22" id="path-5"></path>
        <linearGradient x1="86.244827%" y1="30.9016387%" x2="-50.1397469%" y2="136.01242%" id="linearGradient-7">
            <stop stop-color="#DD4245" offset="0%"></stop>
            <stop stop-color="#B72162" offset="100%"></stop>
        </linearGradient>
        <path d="M17.108,8.78 L2.512,0.486 C1.656,0 0.896,0.06 0.435,0.547 L12.888,13 L17.108,8.78" id="path-8"></path>
        <linearGradient x1="-50.7485156%" y1="-36.4820568%" x2="60.6069694%" y2="49.3389544%" id="linearGradient-10">
            <stop stop-color="#6CB966" offset="0%"></stop>
            <stop stop-color="#299567" offset="100%"></stop>
        </linearGradient>
    </defs>
    <g id="landingPage" stroke="none" stroke-width="1" fill="none" fill-rule="evenodd">
        <g id="landing" transform="translate(-184.000000, -3072.000000)">
            <g id="Bitmap" filter="url(#filter-1)" transform="translate(170.000000, 3064.000000)">
                <g id="google-play-badge" transform="translate(36.000000, 9.000000)">
                    <path d="M38.419,4.243 C38.419,5.081 38.17,5.749 37.673,6.246 C37.109,6.838 36.374,7.134 35.469,7.134 C34.603,7.134 33.867,6.834 33.261,6.233 C32.655,5.633 32.352,4.888 32.352,4 C32.352,3.111 32.655,2.367 33.261,1.767 C33.867,1.166 34.603,0.866 35.469,0.866 C35.899,0.866 36.31,0.95 36.701,1.117 C37.091,1.285 37.405,1.508 37.639,1.788 L37.112,2.315 C36.714,1.841 36.168,1.604 35.469,1.604 C34.837,1.604 34.292,1.825 33.831,2.27 C33.37,2.714 33.139,3.291 33.139,4 C33.139,4.709 33.37,5.286 33.831,5.73 C34.292,6.175 34.837,6.396 35.469,6.396 C36.139,6.396 36.698,6.173 37.145,5.727 C37.435,5.436 37.603,5.031 37.648,4.511 L35.469,4.511 L35.469,3.791 L38.377,3.791 C38.405,3.947 38.419,4.098 38.419,4.243" id="Fill-5" fill="#FFFFFE"></path>
                    <path d="M38.419,4.243 L38.319,4.243 C38.318,5.062 38.079,5.698 37.603,6.175 L37.602,6.176 L37.601,6.177 C37.055,6.748 36.352,7.033 35.469,7.034 C34.626,7.033 33.921,6.745 33.332,6.162 C32.744,5.579 32.453,4.866 32.452,4 C32.453,3.134 32.744,2.421 33.332,1.838 C33.921,1.255 34.626,0.967 35.469,0.966 C35.886,0.966 36.283,1.047 36.661,1.209 C37.04,1.372 37.34,1.586 37.563,1.852 L37.639,1.788 L37.568,1.717 L37.041,2.245 L37.112,2.315 L37.188,2.251 C36.773,1.753 36.189,1.502 35.469,1.504 C34.814,1.503 34.238,1.737 33.761,2.198 C33.28,2.66 33.038,3.269 33.039,4 C33.038,4.731 33.28,5.34 33.761,5.802 C34.238,6.263 34.814,6.497 35.469,6.497 C36.161,6.498 36.751,6.263 37.216,5.797 C37.526,5.486 37.702,5.056 37.748,4.52 L37.757,4.411 L35.569,4.411 L35.569,3.89 L38.377,3.89 L38.377,3.791 L38.278,3.808 C38.305,3.96 38.319,4.104 38.319,4.243 L38.519,4.243 C38.519,4.091 38.504,3.935 38.475,3.773 L38.46,3.691 L35.369,3.691 L35.369,4.611 L37.648,4.611 L37.648,4.511 L37.548,4.503 C37.504,5.006 37.344,5.385 37.074,5.656 C36.644,6.084 36.117,6.296 35.469,6.297 C34.861,6.296 34.345,6.086 33.9,5.659 C33.459,5.232 33.24,4.688 33.239,4 C33.24,3.312 33.459,2.768 33.9,2.341 C34.345,1.914 34.861,1.704 35.469,1.704 C36.146,1.705 36.656,1.929 37.035,2.38 L37.105,2.463 L37.71,1.858 L37.775,1.794 L37.716,1.723 C37.47,1.43 37.142,1.198 36.74,1.025 C36.337,0.853 35.912,0.765997604 35.469,0.765997604 C34.58,0.765 33.813,1.077 33.191,1.696 C32.566,2.313 32.251,3.089 32.2519976,4 C32.251,4.911 32.566,5.687 33.191,6.305 C33.813,6.923 34.58,7.235 35.469,7.23400243 C36.395,7.235 37.163,6.927 37.746,6.315 L37.673,6.246 L37.744,6.317 C38.262,5.799 38.519,5.1 38.519,4.243 L38.419,4.243" id="Fill-6" fill="#FFFFFE"></path>
                    <polyline id="Fill-7" fill="#FFFFFE" points="43.028 1.737 40.295 1.737 40.295 3.64 42.759 3.64 42.759 4.36 40.295 4.36 40.295 6.263 43.028 6.263 43.028 7 39.525 7 39.525 1 43.028 1 43.028 1.737"></polyline>
                    <polyline id="Fill-8" fill="#FFFFFE" points="43.028 1.737 43.028 1.637 40.195 1.637 40.195 3.74 42.659 3.74 42.659 4.26 40.195 4.26 40.195 6.363 42.928 6.363 42.928 6.9 39.625 6.9 39.625 1.1 42.928 1.1 42.928 1.737 43.028 1.737 43.028 1.637 43.028 1.737 43.128 1.737 43.128 0.9 39.425 0.9 39.425 7.1 43.128 7.1 43.128 6.163 40.395 6.163 40.395 4.46 42.859 4.46 42.859 3.54 40.395 3.54 40.395 1.837 43.128 1.837 43.128 1.737 43.028 1.737"></polyline>
                    <polyline id="Fill-9" fill="#FFFFFE" points="46.279 7 45.507 7 45.507 1.737 43.832 1.737 43.832 1 47.955 1 47.955 1.737 46.279 1.737 46.279 7"></polyline>
                    <polyline id="Fill-10" fill="#FFFFFE" points="46.279 7 46.279 6.9 45.607 6.9 45.607 1.637 43.931 1.637 43.931 1.1 47.855 1.1 47.855 1.637 46.179 1.637 46.179 7 46.279 7 46.279 6.9 46.279 7 46.379 7 46.379 1.837 48.055 1.837 48.055 0.9 43.731 0.9 43.731 1.837 45.407 1.837 45.407 7.1 46.379 7.1 46.379 7 46.279 7"></polyline>
                    <polygon id="Fill-11" fill="#FFFFFE" points="50.938 7 51.709 7 51.709 1 50.938 1"></polygon>
                    <polyline id="Fill-12" fill="#FFFFFE" points="50.938 7 51.038 7 51.038 1.1 51.608 1.1 51.608 6.9 50.938 6.9 50.938 7 51.038 7 50.938 7 50.938 7.1 51.809 7.1 51.809 0.9 50.838 0.9 50.838 7.1 50.938 7.1 50.938 7"></polyline>
                    <polyline id="Fill-13" fill="#FFFFFE" points="55.128 7 54.357 7 54.357 1.737 52.681 1.737 52.681 1 56.804 1 56.804 1.737 55.128 1.737 55.128 7"></polyline>
                    <polyline id="Fill-14" fill="#FFFFFE" points="55.128 7 55.128 6.9 54.457 6.9 54.457 1.637 52.781 1.637 52.781 1.1 56.704 1.1 56.704 1.637 55.028 1.637 55.028 7 55.128 7 55.128 6.9 55.128 7 55.228 7 55.228 1.837 56.904 1.837 56.904 0.9 52.581 0.9 52.581 1.837 54.257 1.837 54.257 7.1 55.228 7.1 55.228 7 55.128 7"></polyline>
                    <path d="M60.779,5.722 C61.224,6.172 61.767,6.396 62.409,6.396 C63.052,6.396 63.596,6.172 64.039,5.722 C64.483,5.272 64.706,4.698 64.706,4 C64.706,3.302 64.483,2.728 64.039,2.278 C63.596,1.828 63.052,1.604 62.409,1.604 C61.767,1.604 61.224,1.828 60.779,2.278 C60.336,2.728 60.113,3.302 60.113,4 C60.113,4.698 60.336,5.272 60.779,5.722 Z M64.609,6.225 C64.02,6.831 63.286,7.134 62.409,7.134 C61.532,7.134 60.799,6.831 60.21,6.225 C59.62,5.619 59.326,4.877 59.326,4 C59.326,3.123 59.62,2.381 60.21,1.775 C60.799,1.169 61.532,0.866 62.409,0.866 C63.281,0.866 64.013,1.17 64.605,1.779 C65.197,2.388 65.493,3.128 65.493,4 C65.493,4.877 65.198,5.619 64.609,6.225 L64.609,6.225 Z" id="Fill-15" fill="#FFFFFE"></path>
                    <path d="M60.779,5.722 L60.708,5.792 C61.169,6.26 61.743,6.498 62.409,6.49700314 C63.075,6.498 63.65,6.26 64.11,5.792 C64.574,5.325 64.807,4.719 64.8060032,4 C64.807,3.281 64.574,2.676 64.11,2.208 C63.65,1.74 63.075,1.503 62.409,1.50399685 C61.743,1.503 61.169,1.74 60.708,2.208 C60.246,2.676 60.012,3.281 60.0129968,4 C60.012,4.719 60.246,5.325 60.708,5.792 L60.851,5.652 C60.426,5.221 60.214,4.677 60.213,4 C60.214,3.323 60.426,2.779 60.851,2.348 L60.85,2.348 C61.279,1.916 61.79,1.705 62.409,1.704 C63.029,1.705 63.541,1.916 63.968,2.348 C64.393,2.78 64.605,3.323 64.606,4 C64.605,4.677 64.393,5.22 63.968,5.652 C63.541,6.084 63.029,6.296 62.409,6.297 C61.79,6.295 61.279,6.084 60.85,5.652 L60.779,5.722 Z M64.609,6.225 L64.538,6.155 C63.965,6.743 63.263,7.033 62.409,7.034 C61.555,7.033 60.854,6.743 60.282,6.155 L60.279,6.152 L60.282,6.155 C59.71,5.566 59.427,4.855 59.426,4 C59.427,3.145 59.71,2.434 60.282,1.845 C60.854,1.257 61.555,0.967 62.409,0.966 C63.258,0.967 63.957,1.259 64.534,1.849 C65.108,2.441 65.392,3.151 65.393,4 C65.392,4.855 65.109,5.566 64.538,6.155 L64.681,6.294 C65.288,5.672 65.594,4.899 65.5930024,4 C65.594,3.106 65.286,2.335 64.677,1.71 C64.068,1.082 63.304,0.765 62.409,0.765997634 C61.509,0.765 60.744,1.081 60.138,1.706 C59.531,2.329 59.225,3.101 59.2259976,4 C59.225,4.899 59.531,5.672 60.138,6.294 L60.141,6.297 L60.138,6.294 C60.744,6.92 61.509,7.235 62.409,7.23400237 C63.309,7.235 64.075,6.92 64.681,6.294 L64.609,6.225 L64.609,6.225 Z" id="Fill-16" fill="#FFFFFE"></path>
                    <polyline id="Fill-17" fill="#FFFFFE" points="66.575 7 66.575 1 67.514 1 70.43 5.667 70.463 5.667 70.43 4.511 70.43 1 71.201 1 71.201 7 70.396 7 67.346 2.106 67.312 2.106 67.346 3.263 67.346 7 66.575 7"></polyline>
                    <polyline id="Fill-18" fill="#FFFFFE" points="66.575 7 66.675 7 66.675 1.1 67.458 1.1 70.374 5.768 70.566 5.768 70.53 4.51 70.53 1.1 71.101 1.1 71.101 6.9 70.452 6.9 67.401 2.006 67.21 2.006 67.246 3.264 67.246 6.9 66.575 6.9 66.575 7 66.675 7 66.575 7 66.575 7.1 67.446 7.1 67.446 3.261 67.412 2.104 67.312 2.106 67.312 2.206 67.346 2.206 67.346 2.106 67.261 2.159 70.341 7.1 71.301 7.1 71.301 0.9 70.33 0.9 70.33 4.513 70.363 5.67 70.463 5.667 70.463 5.568 70.43 5.568 70.43 5.667 70.515 5.615 67.569 0.9 66.475 0.9 66.475 7.1 66.575 7.1 66.575 7"></polyline>
                    <path d="M97.936,24 L99.802,24 L99.802,11.499 L97.936,11.499 L97.936,24 Z M114.743,16.002 L112.604,21.422 L112.54,21.422 L110.32,16.002 L108.31,16.002 L111.639,23.577 L109.741,27.791 L111.688,27.791 L116.818,16.002 L114.743,16.002 Z M104.161,22.58 C103.549,22.58 102.697,22.275 102.697,21.519 C102.697,20.554 103.759,20.184 104.675,20.184 C105.496,20.184 105.881,20.361 106.38,20.602 C106.235,21.76 105.238,22.58 104.161,22.58 Z M104.386,15.729 C103.035,15.729 101.636,16.324 101.057,17.643 L102.713,18.334 C103.067,17.643 103.726,17.417 104.418,17.417 C105.383,17.417 106.364,17.996 106.38,19.026 L106.38,19.154 C106.042,18.961 105.319,18.672 104.434,18.672 C102.649,18.672 100.831,19.653 100.831,21.486 C100.831,23.159 102.295,24.237 103.935,24.237 C105.19,24.237 105.881,23.674 106.316,23.014 L106.38,23.014 L106.38,23.979 L108.181,23.979 L108.181,19.187 C108.181,16.967 106.525,15.729 104.386,15.729 Z M92.854,17.524 L90.2,17.524 L90.2,13.239 L92.854,13.239 C94.249,13.239 95.041,14.394 95.041,15.381 C95.041,16.35 94.249,17.524 92.854,17.524 Z M92.806,11.499 L88.335,11.499 L88.335,24 L90.2,24 L90.2,19.264 L92.806,19.264 C94.874,19.264 96.907,17.766 96.907,15.381 C96.907,12.996 94.874,11.499 92.806,11.499 Z M68.425,22.582 C67.136,22.582 66.057,21.503 66.057,20.021 C66.057,18.523 67.136,17.427 68.425,17.427 C69.698,17.427 70.696,18.523 70.696,20.021 C70.696,21.503 69.698,22.582 68.425,22.582 Z M70.567,16.702 L70.503,16.702 C70.084,16.203 69.279,15.752 68.264,15.752 C66.137,15.752 64.188,17.62 64.188,20.021 C64.188,22.405 66.137,24.258 68.264,24.258 C69.279,24.258 70.084,23.807 70.503,23.291 L70.567,23.291 L70.567,23.903 C70.567,25.531 69.698,26.401 68.296,26.401 C67.152,26.401 66.443,25.579 66.153,24.886 L64.526,25.563 C64.993,26.691 66.234,28.076 68.296,28.076 C70.487,28.076 72.34,26.787 72.34,23.646 L72.34,16.009 L70.567,16.009 L70.567,16.702 Z M73.629,24 L75.498,24 L75.498,11.498 L73.629,11.498 L73.629,24 Z M78.252,19.876 C78.204,18.233 79.525,17.395 80.475,17.395 C81.217,17.395 81.845,17.765 82.054,18.297 L78.252,19.876 Z M84.052,18.458 C83.698,17.508 82.618,15.752 80.411,15.752 C78.22,15.752 76.4,17.475 76.4,20.005 C76.4,22.389 78.204,24.258 80.62,24.258 C82.57,24.258 83.698,23.066 84.165,22.373 L82.715,21.406 C82.232,22.115 81.571,22.582 80.62,22.582 C79.67,22.582 78.993,22.147 78.558,21.294 L84.245,18.942 L84.052,18.458 Z M38.744,17.057 L38.744,18.861 L43.061,18.861 C42.932,19.876 42.594,20.617 42.079,21.133 C41.45,21.761 40.467,22.453 38.744,22.453 C36.086,22.453 34.007,20.311 34.007,17.653 C34.007,14.994 36.086,12.852 38.744,12.852 C40.178,12.852 41.225,13.416 41.998,14.141 L43.271,12.868 C42.191,11.837 40.758,11.047 38.744,11.047 C35.103,11.047 32.042,14.012 32.042,17.653 C32.042,21.294 35.103,24.258 38.744,24.258 C40.709,24.258 42.191,23.614 43.351,22.405 C44.543,21.213 44.914,19.538 44.914,18.184 C44.914,17.765 44.882,17.379 44.817,17.057 L38.744,17.057 Z M49.823,22.582 C48.534,22.582 47.422,21.519 47.422,20.005 C47.422,18.474 48.534,17.427 49.823,17.427 C51.111,17.427 52.223,18.474 52.223,20.005 C52.223,21.519 51.111,22.582 49.823,22.582 Z M49.823,15.752 C47.47,15.752 45.553,17.54 45.553,20.005 C45.553,22.453 47.47,24.258 49.823,24.258 C52.175,24.258 54.092,22.453 54.092,20.005 C54.092,17.54 52.175,15.752 49.823,15.752 Z M59.136,22.582 C57.847,22.582 56.735,21.519 56.735,20.005 C56.735,18.474 57.847,17.427 59.136,17.427 C60.425,17.427 61.536,18.474 61.536,20.005 C61.536,21.519 60.425,22.582 59.136,22.582 Z M59.136,15.752 C56.784,15.752 54.867,17.54 54.867,20.005 C54.867,22.453 56.784,24.258 59.136,24.258 C61.488,24.258 63.405,22.453 63.405,20.005 C63.405,17.54 61.488,15.752 59.136,15.752 L59.136,15.752 Z" id="Fill-19" fill="#FFFFFE"></path>
                    <path d="M1.435,1.547 C1.144,1.855 0.973,2.332 0.973,2.951 L0.973,25.049 C0.973,25.668 1.144,26.145 1.435,26.453 L1.509,26.525 L13.888,14.146 L13.888,13.854 L1.509,1.475 L1.435,1.547" id="Fill-20" fill="#60C2E3"></path>
                    <g id="Group-23" transform="translate(13.000000, 9.000000)">
                        <mask id="mask-3" fill="white">
                            <use xlink:href="#path-2"></use>
                        </mask>
                        <g id="Clip-22"></g>
                        <path d="M5.013,9.274 L0.888,5.146 L0.888,4.854 L5.015,0.727 L9.997,3.557 C11.393,4.351 11.393,5.649 9.997,6.442 L5.108,9.22 L5.013,9.274" id="Fill-21" fill="url(#linearGradient-4)" mask="url(#mask-3)"></path>
                    </g>
                    <g id="Group-26" transform="translate(1.000000, 14.000000)">
                        <mask id="mask-6" fill="white">
                            <use xlink:href="#path-5"></use>
                        </mask>
                        <g id="Clip-25"></g>
                        <path d="M17.108,4.22 L12.888,0 L0.435,12.453 C0.896,12.94 1.656,13 2.512,12.514 L17.108,4.22" id="Fill-24" fill="url(#linearGradient-7)" mask="url(#mask-6)"></path>
                    </g>
                    <g id="Group-29" transform="translate(1.000000, 1.000000)">
                        <mask id="mask-9" fill="white">
                            <use xlink:href="#path-8"></use>
                        </mask>
                        <g id="Clip-28"></g>
                        <path d="M17.108,8.78 L2.512,0.486 C1.656,0 0.896,0.06 0.435,0.547 L12.888,13 L17.108,8.78" id="Fill-27" fill="url(#linearGradient-10)" mask="url(#mask-9)"></path>
                    </g>
                </g>
            </g>
        </g>
    </g>
</svg>