<?xml version="1.0" encoding="UTF-8"?>
<svg width="118px" height="32px" viewBox="0 0 118 32" version="1.1" xmlns="http://www.w3.org/2000/svg" xmlns:xlink="http://www.w3.org/1999/xlink">
    <!-- Generator: Sketch 58 (84663) - https://sketch.com -->
    <title>tokeo_logo</title>
    <desc>Created with Sketch.</desc>
    <defs>
        <polygon id="path-1" points="0.220338462 0.487517857 20.4716077 0.487517857 20.4716077 23 0.220338462 23"></polygon>
    </defs>
    <g id="landingPage" stroke="none" stroke-width="1" fill="none" fill-rule="evenodd">
        <g id="landing" transform="translate(-150.000000, -39.000000)">
            <g id="tokeo_logo" transform="translate(150.000000, 39.000000)">
                <path d="M9.72919412,32 C8.66157171,32 7.72128815,31.8515873 6.90750013,31.5555684 C6.09371212,31.2595495 5.40894956,30.8393155 4.85405576,30.29406 C4.29916197,29.7496111 3.87751015,29.0914329 3.5891003,28.3195253 C3.30069045,27.5468111 3.15732884,26.6853719 3.15732884,25.7344011 L3.15732884,14.6502276 L1.25314921,14.6502276 C0.907394719,14.6502276 0.612238444,14.542951 0.366837084,14.3292044 C0.121435724,14.1162643 0,13.8016938 0,13.3887192 L0,10.886674 L3.56717441,10.2244628 L4.88694461,4.99291352 C5.05982185,4.33070231 5.54893796,4 6.35597955,4 L9.85906288,4 L9.85906288,10.2664055 L15.4147473,10.2664055 L15.4147473,14.6502276 L9.85906288,14.6502276 L9.85906288,25.2996486 C9.85906288,25.7965086 9.98471512,26.2062568 10.2385495,26.5305064 C10.489854,26.854756 10.8541612,27.0160742 11.3280978,27.0160742 C11.5743425,27.0160742 11.7801086,26.9926831 11.9462394,26.943481 C12.1106836,26.8958921 12.2557318,26.841044 12.3780109,26.7781299 C12.4994466,26.7168289 12.6149792,26.6611742 12.7237654,26.6127787 C12.8325515,26.5651898 12.9573605,26.5401855 13.1024087,26.5401855 C13.303115,26.5401855 13.4667159,26.5853546 13.5881516,26.6748862 C13.7104306,26.7652244 13.8369262,26.9063778 13.9667949,27.0991531 L16,30.1391946 C15.1347705,30.759463 14.1615981,31.224866 13.0813261,31.534597 C11.9985242,31.8451345 10.8819902,32 9.72919412,32" id="Fill-1" fill="#F4F6F8"></path>
                <path d="M28.042096,27.2670218 C29.5219311,27.2670218 30.6123786,26.749252 31.3110097,25.7129096 C32.0088313,24.6773699 32.3585517,23.1031891 32.3585517,20.9895643 C32.3585517,18.8767423 32.0088313,17.3057725 31.3110097,16.2766547 C30.6123786,15.247537 29.5219311,14.7329782 28.042096,14.7329782 C26.5193553,14.7329782 25.4062408,15.247537 24.7003238,16.2766547 C23.9944068,17.3057725 23.6414483,18.8767423 23.6414483,20.9895643 C23.6414483,23.1031891 23.9944068,24.6773699 24.7003238,25.7129096 C25.4062408,26.749252 26.5193553,27.2670218 28.042096,27.2670218 M28.042096,10 C29.6749338,10 31.1620548,10.2536671 32.5042685,10.7610012 C33.8464822,11.2691381 34.9984545,11.9964241 35.9593759,12.9428592 C36.9219164,13.8892943 37.6691198,15.0388236 38.2017957,16.3898416 C38.7336621,17.7416624 39,19.2612567 39,20.9486244 C39,22.6504415 38.7336621,24.1836824 38.2017957,25.5483471 C37.6691198,26.9138145 36.9219164,28.0729767 35.9593759,29.0266365 C34.9984545,29.9802963 33.8464822,30.7140042 32.5042685,31.2285631 C31.1620548,31.7431219 29.6749338,32 28.042096,32 C26.395496,32 24.8970415,31.7431219 23.5483515,31.2285631 C22.1988519,30.7140042 21.0371651,29.9802963 20.0616721,29.0266365 C19.086179,28.0729767 18.3316897,26.9138145 17.7998234,25.5483471 C17.2663379,24.1836824 17,22.6504415 17,20.9486244 C17,19.2612567 17.2663379,17.7416624 17.7998234,16.3898416 C18.3316897,15.0388236 19.086179,13.8892943 20.0616721,12.9428592 C21.0371651,11.9964241 22.1988519,11.2691381 23.5483515,10.7610012 C24.8970415,10.2536671 26.395496,10 28.042096,10" id="Fill-3" fill="#F4F6F8"></path>
                <path d="M48.6727987,0 L48.6727987,17.3738927 L49.6636006,17.3738927 C50.0792336,17.3738927 50.3949468,17.3149297 50.61074,17.1978114 C50.824854,17.0806931 51.0406473,16.884419 51.2564406,16.6081813 L55.4757452,10.560839 C55.7335216,10.2159458 56.0282432,9.95747785 56.3582306,9.78462741 C56.688218,9.61177697 57.111408,9.52535175 57.6278005,9.52535175 L63.7413839,9.52535175 L57.9729018,17.1671183 C57.4271211,17.8569046 56.7814206,18.423111 56.0358002,18.8649297 C56.3649479,19.0999739 56.6672264,19.372173 56.9392771,19.6831423 C57.2121675,19.9933038 57.4707836,20.3422355 57.7151254,20.7291298 L64,31 L57.9729018,31 C57.4707836,31 57.0400366,30.9208442 56.680661,30.7617249 C56.3221251,30.6034132 56.0206862,30.3231371 55.7771841,29.9233194 L51.5578795,22.3235539 C51.3563604,21.977853 51.1481241,21.7541167 50.9331705,21.6499218 C50.7182169,21.5465347 50.3949468,21.4948411 49.9641998,21.4948411 L48.6727987,21.4948411 L48.6727987,31 L42,31 L42,0 L48.6727987,0 Z" id="Fill-5" fill="#F4F6F8"></path>
                <g id="Group-9" transform="translate(63.000000, 9.000000)">
                    <mask id="mask-2" fill="white">
                        <use xlink:href="#path-1"></use>
                    </mask>
                    <g id="Clip-8"></g>
                    <path d="M14.7151846,9.12155357 C14.7151846,8.60241071 14.6497615,8.09641071 14.5189154,7.60519643 C14.3872615,7.11398214 14.1732231,6.67533929 13.8768,6.28926786 C13.5795692,5.90319643 13.1894538,5.59105357 12.7064538,5.35201786 C12.2234538,5.11380357 11.6362615,4.993875 10.9464923,4.993875 C9.73172308,4.993875 8.77864615,5.34873214 8.08887692,6.057625 C7.3983,6.76651786 6.94276154,7.78755357 6.72226154,9.12155357 L14.7151846,9.12155357 Z M6.63906923,12.9124464 C6.84664615,14.7376607 7.39183846,16.0609821 8.27464615,16.8824107 C9.15826154,17.7038393 10.2971077,18.1145536 11.6919923,18.1145536 C12.4374923,18.1145536 13.0796077,18.0225536 13.6183385,17.8401964 C14.1562615,17.6578393 14.6352231,17.4549464 15.0568385,17.229875 C15.4776462,17.005625 15.8645308,16.8019107 16.2158769,16.6187321 C16.5688385,16.436375 16.9379538,16.3451964 17.3240308,16.3451964 C17.8344923,16.3451964 18.2213769,16.5349464 18.4838769,16.913625 L20.3480308,19.2514107 C19.6849154,20.0235536 18.9709154,20.6519464 18.2044154,21.1357679 C17.4379154,21.6204107 16.6512231,21.9999107 15.8435308,22.2734464 C15.0358385,22.5469821 14.2281462,22.7367321 13.4204538,22.841875 C12.6127615,22.9478393 11.8430308,23.0004107 11.1120692,23.0004107 C9.60733846,23.0004107 8.19549231,22.7506964 6.87733846,22.2520893 C5.55918462,21.7543036 4.4058,21.013375 3.41960769,20.0309464 C2.4318,19.0476964 1.65156923,17.8270536 1.07891538,16.3665536 C0.506261538,14.9060536 0.220338462,13.2073393 0.220338462,11.2695893 C0.220338462,9.80991071 0.464261538,8.426625 0.955338462,7.12055357 C1.4448,5.81530357 2.1483,4.67105357 3.06664615,3.688625 C3.98499231,2.705375 5.09637692,1.92666071 6.4008,1.35083929 C7.70522308,0.775017857 9.17926154,0.487517857 10.8221077,0.487517857 C12.2436462,0.487517857 13.5456462,0.711767857 14.7256846,1.16108929 C15.9065308,1.61041071 16.9201846,2.26344643 17.7690692,3.119375 C18.6187615,3.976125 19.2810692,5.02591071 19.7576077,6.26791071 C20.2333385,7.51073214 20.4716077,8.91783929 20.4716077,10.490875 C20.4716077,10.9820893 20.4514154,11.382125 20.4102231,11.6909821 C20.3682231,11.9998393 20.2923,12.2454464 20.1824538,12.4278036 C20.0718,12.6109821 19.9231846,12.7366607 19.7366077,12.8073036 C19.5500308,12.877125 19.3117615,12.9124464 19.0226077,12.9124464 L6.63906923,12.9124464 Z" id="Fill-7" fill="#F4F6F8" mask="url(#mask-2)"></path>
                </g>
                <path d="M97.042096,27.2670218 C98.5219311,27.2670218 99.6123786,26.749252 100.31101,25.7129096 C101.008831,24.6773699 101.358552,23.1031891 101.358552,20.9895643 C101.358552,18.8767423 101.008831,17.3057725 100.31101,16.2766547 C99.6123786,15.247537 98.5219311,14.7329782 97.042096,14.7329782 C95.5193553,14.7329782 94.4062408,15.247537 93.7003238,16.2766547 C92.9944068,17.3057725 92.6414483,18.8767423 92.6414483,20.9895643 C92.6414483,23.1031891 92.9944068,24.6773699 93.7003238,25.7129096 C94.4062408,26.749252 95.5193553,27.2670218 97.042096,27.2670218 M97.042096,10 C98.6749338,10 100.162055,10.2536671 101.504268,10.7610012 C102.846482,11.2691381 103.998455,11.9964241 104.959376,12.9428592 C105.921916,13.8892943 106.66912,15.0388236 107.201796,16.3898416 C107.733662,17.7416624 108,19.2612567 108,20.9486244 C108,22.6504415 107.733662,24.1836824 107.201796,25.5483471 C106.66912,26.9138145 105.921916,28.0729767 104.959376,29.0266365 C103.998455,29.9802963 102.846482,30.7140042 101.504268,31.2285631 C100.162055,31.7431219 98.6749338,32 97.042096,32 C95.395496,32 93.8970415,31.7431219 92.5483515,31.2285631 C91.1988519,30.7140042 90.0371651,29.9802963 89.0616721,29.0266365 C88.086179,28.0729767 87.3316897,26.9138145 86.7998234,25.5483471 C86.2663379,24.1836824 86,22.6504415 86,20.9486244 C86,19.2612567 86.2663379,17.7416624 86.7998234,16.3898416 C87.3316897,15.0388236 88.086179,13.8892943 89.0616721,12.9428592 C90.0371651,11.9964241 91.1988519,11.2691381 92.5483515,10.7610012 C93.8970415,10.2536671 95.395496,10 97.042096,10" id="Fill-10" fill="#F4F6F8"></path>
                <path d="M111,28.5 C111,28.00901 111.089207,27.5523495 111.268395,27.1292199 C111.447584,26.7060903 111.692708,26.3380474 112.004543,26.0234945 C112.315603,25.70974 112.683289,25.4606524 113.108378,25.2762318 C113.532691,25.0918111 113.995789,25 114.500776,25 C114.991024,25 115.447917,25.0918111 115.87223,25.2762318 C116.296543,25.4606524 116.668107,25.70974 116.986148,26.0234945 C117.304189,26.3380474 117.552416,26.7060903 117.73238,27.1292199 C117.910793,27.5523495 118,28.00901 118,28.5 C118,28.9917883 117.910793,29.4516423 117.73238,29.8819571 C117.552416,30.3114735 117.304189,30.6835082 116.986148,30.9972628 C116.668107,31.3110173 116.296543,31.5569115 115.87223,31.7341469 C115.447917,31.9113823 114.991024,32 114.500776,32 C113.995789,32 113.532691,31.9113823 113.108378,31.7341469 C112.683289,31.5569115 112.315603,31.3110173 112.004543,30.9972628 C111.692708,30.6835082 111.447584,30.3114735 111.268395,29.8819571 C111.089207,29.4516423 111,28.9917883 111,28.5" id="Fill-12" fill="#315AB8"></path>
            </g>
        </g>
    </g>
</svg>